<svg aria-hidden="true" style="position:absolute;width:0;height:0;overflow:hidden" xmlns="http://www.w3.org/2000/svg"><defs>
<symbol id="icon-balance-scale" viewBox="0 0 34 28"><path d="m27 7-6 11h12zM7 7 1 18h12zm12.828-3A3.025 3.025 0 0 1 18 5.828V26h9.5c.281 0 .5.219.5.5v1c0 .281-.219.5-.5.5h-21a.494.494 0 0 1-.5-.5v-1c0-.281.219-.5.5-.5H16V5.828A3.025 3.025 0 0 1 14.172 4H6.5a.494.494 0 0 1-.5-.5v-1c0-.281.219-.5.5-.5h7.672C14.594.828 15.688 0 17 0s2.406.828 2.828 2H27.5c.281 0 .5.219.5.5v1c0 .281-.219.5-.5.5h-7.672zM17 4.25c.688 0 1.25-.562 1.25-1.25S17.688 1.75 17 1.75s-1.25.562-1.25 1.25.562 1.25 1.25 1.25zM34 18c0 3.219-4.453 4.5-7 4.5s-7-1.281-7-4.5c0-.609 5.453-10.266 6.125-11.484.172-.313.516-.516.875-.516s.703.203.875.516C28.547 7.735 34 17.391 34 18zm-20 0c0 3.219-4.453 4.5-7 4.5S0 21.219 0 18c0-.609 5.453-10.266 6.125-11.484C6.297 6.203 6.641 6 7 6s.703.203.875.516C8.547 7.735 14 17.391 14 18z"/></symbol>
<symbol id="icon-star-half" viewBox="0 0 32 32"><path d="m32 12.408-11.056-1.607L16 .783l-4.944 10.018L0 12.408l8 7.798-1.889 11.011L16 26.018l9.889 5.199L24 20.206l8-7.798zM16 23.547l-.029.015L16 5.725l3.492 7.075 7.807 1.134-5.65 5.507 1.334 7.776L16 23.546z"/></symbol>
<symbol id="icon-star-full" viewBox="0 0 32 32"><path d="m32 12.408-11.056-1.607L16 .783l-4.944 10.018L0 12.408l8 7.798-1.889 11.011L16 26.018l9.889 5.199L24 20.206l8-7.798z"/></symbol>
<symbol id="icon-heart" viewBox="0 0 32 32">
<path d="M23.6 2c-3.363 0-6.258 2.736-7.599 5.594-1.342-2.858-4.237-5.594-7.601-5.594-4.637 0-8.4 3.764-8.4 8.401 0 9.433 9.516 11.906 16.001 21.232 6.13-9.268 15.999-12.1 15.999-21.232 0-4.637-3.763-8.401-8.4-8.401z"></path>
</symbol></defs></svg>